<svg xmlns="http://www.w3.org/2000/svg" viewBox="-20 -10 25 35">
    
<defs>
  <g
     id="ship_generic"
     class="ship_shape"
     transform="matrix(4.6378669,0,0,4.6378669,59.67243,-68.489045)">
    <path
       d="m -16.172,24 c -0.343,-0.55 -1.02,-1 -1.504,-1 -1.66,0 -0.658,-4.129 1.64,-6.75 0.6,-0.685 0.94,-2.103 1.078,-4.5 0.187,-3.267 1.507,-7.25 2.402,-7.25 0.895,0 2.215,3.983 2.402,7.25 0.138,2.397 0.478,3.815 1.078,4.5 2.298,2.621 3.3,6.75 1.64,6.75 -0.484,0 -1.16,0.45 -1.504,1 -0.512,0.819 -1.166,1 -3.616,1 -2.45,0 -3.104,-0.181 -3.616,-1 z"
       />
  </g>
</defs> 
    
</svg>
