<?xml version="1.0" encoding="UTF-8" standalone="no"?>
<svg
   xmlns:dc="http://purl.org/dc/elements/1.1/"
   xmlns:cc="http://creativecommons.org/ns#"
   xmlns:rdf="http://www.w3.org/1999/02/22-rdf-syntax-ns#"
   xmlns:svg="http://www.w3.org/2000/svg"
   xmlns="http://www.w3.org/2000/svg"
   xmlns:sodipodi="http://sodipodi.sourceforge.net/DTD/sodipodi-0.dtd"
   xmlns:inkscape="http://www.inkscape.org/namespaces/inkscape"
   viewBox="-20 -10 25 35"
   version="1.1"
   id="svg7"
   sodipodi:docname="generic.svg">
  <metadata
     id="metadata11">
    <rdf:RDF>
      <cc:Work
         rdf:about="">
        <dc:format>image/svg+xml</dc:format>
        <dc:type
           rdf:resource="http://purl.org/dc/dcmitype/StillImage" />
      </cc:Work>
    </rdf:RDF>
  </metadata>
  <sodipodi:namedview
     pagecolor="#ffffff"
     bordercolor="#666666"
     borderopacity="1"
     objecttolerance="10"
     gridtolerance="10"
     guidetolerance="10"
     inkscape:pageopacity="0"
     inkscape:pageshadow="2"
     inkscape:window-width="640"
     inkscape:window-height="480"
     id="namedview9"
     showgrid="false" />
  <defs
     id="defs5">
    <g
       id="ship_generic"
       class="ship_shape">
      <path
         d="M-16.172 24c-.343-.55-1.02-1-1.504-1-1.66 0-.658-4.129 1.64-6.75.6-.685.94-2.103 1.078-4.5.187-3.267 1.507-7.25 2.402-7.25.895 0 2.215 3.983 2.402 7.25.138 2.397.478 3.815 1.078 4.5 2.298 2.621 3.3 6.75 1.64 6.75-.484 0-1.16.45-1.504 1-.512.819-1.166 1-3.616 1s-3.104-.181-3.616-1z"
         id="path2" />
    </g>
    <path
       id="path13"
       d="M-16.172 24c-.343-.55-1.02-1-1.504-1-1.66 0-.658-4.129 1.64-6.75.6-.685.94-2.103 1.078-4.5.187-3.267 1.507-7.25 2.402-7.25.895 0 2.215 3.983 2.402 7.25.138 2.397.478 3.815 1.078 4.5 2.298 2.621 3.3 6.75 1.64 6.75-.484 0-1.16.45-1.504 1-.512.819-1.166 1-3.616 1s-3.104-.181-3.616-1z" />
  </defs>
</svg>
