<?xml version="1.0" encoding="UTF-8" standalone="no"?>
<svg
   xmlns:svg="http://www.w3.org/2000/svg"
   xmlns="http://www.w3.org/2000/svg"
   viewBox="-13 -10 22 25"
   x="0px"
   y="0px"
   width="35px"
   height="35px"
   >
  <g
     transform="matrix(0.50002102,0,0,0.5,-0.54977087,0)" >
    <path
       style="fill:#1e83eb"
       d="M -6.2436388,22 C -6.930606,20.9 -8.2844322,20 -9.25214,20 c -3.321331,0 -1.315161,-8.25747 3.2798527,-13.5 1.2003935,-1.36955 1.8797316,-4.20658 2.1550862,-9 C -3.4418658,-9.03391 -0.80168481,-17 0.98849931,-17 2.7786835,-17 5.4188643,-9.03391 5.7941997,-2.5 6.0695541,2.29342 6.7488921,5.13045 7.9492859,6.5 12.544302,11.74253 14.550472,20 11.229139,20 10.261432,20 8.9076046,20.9 8.2206374,22 7.1976962,23.63797 5.8885886,24 0.98849931,24 -3.91159,24 -5.2206978,23.63797 -6.2436388,22 Z"
       />
  </g>
</svg>
